<?xml version="1.0" encoding="UTF-8"?>
<!DOCTYPE svg PUBLIC "-//W3C//DTD SVG 1.1//EN" "http://www.w3.org/Graphics/SVG/1.1/DTD/svg11.dtd">
<!-- Creator: CorelDRAW X7 -->
<svg xmlns="http://www.w3.org/2000/svg" xml:space="preserve" width="2.84567in" height="0.460787in" version="1.1" style="shape-rendering:geometricPrecision; text-rendering:geometricPrecision; image-rendering:optimizeQuality; fill-rule:evenodd; clip-rule:evenodd"
viewBox="0 0 2846 461"
 xmlns:xlink="http://www.w3.org/1999/xlink">
 <defs>
  <style type="text/css">
   <![CDATA[
    .fil0 {fill:black;fill-rule:nonzero}
   ]]>
  </style>
 </defs>
 <g id="__x0023_Layer_x0020_1">
  <metadata id="CorelCorpID_0Corel-Layer"/>
  <g id="_2404594310128">
   <path class="fil0" d="M228 0c-128,0 -228,101 -228,230l0 2c0,130 97,229 227,229 127,0 226,-100 228,-228 0,-2 0,-4 0,-6 -2,-130 -99,-227 -227,-227l0 0zm0 395l0 0c-89,0 -156,-71 -156,-165l0 -1c0,-93 66,-163 155,-163 89,0 156,71 156,164l0 2c0,93 -67,163 -155,163z"/>
   <path class="fil0" d="M825 7l-170 0 0 447 70 0 0 -150 92 0c106,0 178,-60 178,-150l0 -1c0,-89 -67,-146 -170,-146l0 0zm-6 231l0 0 -94 0 0 -165 96 0c66,0 103,30 103,82l0 1c0,50 -41,82 -105,82l0 0z"/>
   <path class="fil0" d="M1479 265c0,83 -41,129 -117,129 -75,0 -118,-48 -118,-132l0 -255 -70 0 0 258c0,120 72,195 187,195 118,0 188,-74 188,-199l0 -254 -70 0 0 258z"/>
   <polygon class="fil0" points="1976,230 1827,7 1762,7 1762,454 1830,454 1830,135 1968,337 1982,337 2120,134 2120,454 2190,454 2190,7 2125,7 "/>
   <path class="fil0" d="M2845 227c-1,-130 -98,-227 -226,-227 -128,0 -228,101 -228,230l0 2c0,130 97,229 226,229 127,0 227,-100 228,-228 1,-1 1,-2 1,-3 0,-1 0,-2 -1,-3zm-226 168l0 0c-90,0 -157,-71 -157,-165l0 -1c0,-93 67,-163 155,-163 89,0 157,71 157,164l0 2c0,93 -67,163 -155,163z"/>
  </g>
 </g>
</svg>
